<svg width="48" height="48" viewBox="0 0 48 48" fill="none" xmlns="http://www.w3.org/2000/svg">
<g clip-path="url(#clip0_2403_4)">
<path fill-rule="evenodd" clip-rule="evenodd" d="M45 24C45 24.4142 44.6642 24.75 44.25 24.75H27.75C27.3358 24.75 27 24.4142 27 24C27 23.5858 27.3358 23.25 27.75 23.25H44.25C44.6642 23.25 45 23.5858 45 24ZM27.75 18.75H44.25C44.6642 18.75 45 18.4142 45 18C45 17.5858 44.6642 17.25 44.25 17.25H27.75C27.3358 17.25 27 17.5858 27 18C27 18.4142 27.3358 18.75 27.75 18.75ZM44.25 29.25H27.75C27.3358 29.25 27 29.5858 27 30C27 30.4142 27.3358 30.75 27.75 30.75H44.25C44.6642 30.75 45 30.4142 45 30C45 29.5858 44.6642 29.25 44.25 29.25Z" fill="black"/>
</g>
<defs>
<clipPath id="clip0_2403_4">
<rect width="24" height="24" fill="white" transform="translate(24 12)"/>
</clipPath>
</defs>
</svg>
