<svg width="29" height="27" viewBox="0 0 29 27" fill="none" xmlns="http://www.w3.org/2000/svg">
<path d="M1 23.2222V9.33333C1 7.79921 2.20883 6.55556 3.7 6.55556H4.375C5.22484 6.55556 6.02509 6.1439 6.535 5.44444L9.532 1.33333C9.68497 1.1235 9.92505 1 10.18 1H18.82C19.075 1 19.315 1.1235 19.468 1.33333L22.465 5.44444C22.9749 6.1439 23.7752 6.55556 24.625 6.55556H25.3C26.7912 6.55556 28 7.79921 28 9.33333V23.2222C28 24.7564 26.7912 26 25.3 26H3.7C2.20883 26 1 24.7564 1 23.2222Z" stroke="white" stroke-width="2" stroke-linecap="round" stroke-linejoin="round"/>
<path d="M14.4996 20.4444C17.4819 20.4444 19.8996 17.957 19.8996 14.8888C19.8996 11.8206 17.4819 9.33325 14.4996 9.33325C11.5173 9.33325 9.09961 11.8206 9.09961 14.8888C9.09961 17.957 11.5173 20.4444 14.4996 20.4444Z" stroke="white" stroke-width="2" stroke-linecap="round" stroke-linejoin="round"/>
</svg>
