<svg width="89" height="103" viewBox="0 0 89 103" fill="none" xmlns="http://www.w3.org/2000/svg">
<g clip-path="url(#clip0_2534_96)">
<path d="M49.1204 5.99512C41.5997 5.99512 35.5029 21.4144 35.5029 40.4351C35.5029 67.2122 44.099 66.9969 46.1586 82.5379L47.0267 89.1676C47.2701 90.9989 47.9661 92.1957 48.7289 92.095H49.6821C50.445 92.1957 51.1409 90.9989 51.3843 89.1676L52.2524 82.5379C54.227 66.9969 62.7379 67.2122 62.7379 40.4351C62.7379 21.4144 56.6411 5.99512 49.1204 5.99512ZM49.1204 53.3501C46.3001 53.3501 44.0139 47.5678 44.0139 40.4351C44.0139 33.3023 46.3001 27.5201 49.1204 27.5201C51.9407 27.5201 54.227 33.3023 54.227 40.4351C54.227 43.8604 53.689 47.1453 52.7313 49.5674C51.7736 51.9894 50.4748 53.3501 49.1204 53.3501Z" fill="#333333"/>
<rect x="8.75391" y="-2.17969" width="80.2459" height="67.5767" rx="15" fill="#333333"/>
<rect x="21" y="10" width="57" height="44" fill="#D9D9D9"/>
</g>
<defs>
<clipPath id="clip0_2534_96">
<rect width="89" height="103" fill="white"/>
</clipPath>
</defs>
</svg>
