<svg width="36" height="35" viewBox="0 0 36 35" fill="none" xmlns="http://www.w3.org/2000/svg">
<path fill-rule="evenodd" clip-rule="evenodd" d="M20.976 3.70692C21.1065 3.95338 21.1395 4.26984 21.204 4.90275C21.327 6.09859 21.3885 6.6965 21.6465 7.02609C21.8072 7.23072 22.0209 7.39033 22.2656 7.48869C22.5104 7.58705 22.7776 7.62066 23.04 7.58609C23.46 7.53213 23.94 7.1515 24.897 6.39025C25.4025 5.9863 25.656 5.78505 25.9275 5.70046C26.2733 5.59304 26.6474 5.61117 26.9805 5.7515C27.243 5.86234 27.4755 6.08692 27.936 6.53609L29.277 7.83984C29.739 8.289 29.97 8.51359 30.084 8.7688C30.2283 9.09263 30.247 9.45636 30.1365 9.79255C30.0495 10.0565 29.8425 10.303 29.4285 10.7944C28.644 11.7263 28.2525 12.1915 28.1955 12.6013C28.1604 12.8564 28.1953 13.1159 28.2967 13.3536C28.3982 13.5913 28.5625 13.7986 28.773 13.9546C29.1105 14.2055 29.727 14.2653 30.9585 14.3848C31.608 14.4475 31.9335 14.4796 32.1885 14.6065C32.5102 14.7687 32.7606 15.0386 32.8935 15.3663C33 15.6244 33 15.9423 33 16.5782V18.4215C33 19.0573 33 19.3753 32.895 19.6319C32.7617 19.9607 32.5101 20.2312 32.187 20.3932C31.9335 20.52 31.608 20.5521 30.957 20.6148C29.727 20.7344 29.112 20.7942 28.773 21.045C28.5625 21.2013 28.3983 21.409 28.2972 21.647C28.196 21.8849 28.1614 22.1447 28.197 22.3998C28.254 22.8082 28.6455 23.2748 29.4285 24.2053C29.8425 24.6967 30.0495 24.9417 30.1365 25.2071C30.247 25.5433 30.2283 25.907 30.084 26.2309C29.97 26.4861 29.739 26.7107 29.277 27.1598L27.936 28.4621C27.474 28.9128 27.243 29.1373 26.9805 29.2467C26.6474 29.387 26.2733 29.4052 25.9275 29.2978C25.656 29.2132 25.4025 29.0119 24.897 28.6094C23.9385 27.8482 23.46 27.4675 23.04 27.4136C22.7776 27.379 22.5104 27.4126 22.2656 27.511C22.0209 27.6093 21.8072 27.7689 21.6465 27.9736C21.3885 28.3017 21.327 28.8996 21.204 30.0969C21.1395 30.7298 21.1065 31.0463 20.976 31.2928C20.8098 31.6066 20.5321 31.8512 20.1945 31.9811C19.929 32.0832 19.602 32.0832 18.948 32.0832H17.052C16.398 32.0832 16.071 32.0832 15.807 31.9811C15.4688 31.8515 15.1906 31.6069 15.024 31.2928C14.8935 31.0463 14.8605 30.7298 14.796 30.0969C14.673 28.9011 14.6115 28.3032 14.3535 27.9736C14.1929 27.7692 13.9795 27.6097 13.7351 27.5114C13.4906 27.413 13.2237 27.3793 12.9615 27.4136C12.54 27.4675 12.0615 27.8482 11.103 28.6094C10.5975 29.0134 10.344 29.2146 10.0725 29.2992C9.72671 29.4066 9.35258 29.3885 9.0195 29.2482C8.757 29.1373 8.5245 28.9128 8.064 28.4636L6.723 27.1598C6.261 26.7107 6.03 26.4861 5.916 26.2309C5.77166 25.907 5.75301 25.5433 5.8635 25.2071C5.9505 24.9432 6.1575 24.6967 6.5715 24.2053C7.356 23.2734 7.7475 22.8082 7.803 22.3984C7.83828 22.1435 7.80358 21.884 7.70242 21.6463C7.60126 21.4086 7.43724 21.2012 7.227 21.045C6.8895 20.7942 6.273 20.7344 5.0415 20.6148C4.392 20.5521 4.0665 20.52 3.8115 20.3932C3.48982 20.231 3.23939 19.9611 3.1065 19.6334C3 19.3753 3 19.0573 3 18.4215V16.5782C3 15.9423 3 15.6244 3.105 15.3678C3.23833 15.039 3.48992 14.7685 3.813 14.6065C4.0665 14.4796 4.392 14.4475 5.043 14.3848C6.273 14.2653 6.8895 14.2055 7.227 13.9546C7.43751 13.7986 7.60183 13.5913 7.70325 13.3536C7.80468 13.1159 7.83961 12.8564 7.8045 12.6013C7.7475 12.1915 7.3545 11.7263 6.5715 10.793C6.1575 10.3015 5.9505 10.0565 5.8635 9.79109C5.75301 9.4549 5.77166 9.09117 5.916 8.76734C6.03 8.51359 6.261 8.28755 6.723 7.83838L8.064 6.53609C8.526 6.08692 8.757 5.86088 9.0195 5.7515C9.35258 5.61117 9.72671 5.59304 10.0725 5.70046C10.344 5.78505 10.5975 5.9863 11.103 6.3888C12.0615 7.15005 12.54 7.53067 12.96 7.58609C13.2228 7.62076 13.4904 7.58707 13.7355 7.48844C13.9805 7.3898 14.1943 7.22976 14.355 7.02463C14.61 6.6965 14.673 6.09859 14.796 4.9013C14.8605 4.26984 14.8935 3.95338 15.024 3.70546C15.1905 3.39217 15.4681 3.14815 15.8055 3.01859C16.071 2.9165 16.398 2.9165 17.052 2.9165H18.948C19.602 2.9165 19.929 2.9165 20.193 3.01859C20.5312 3.14821 20.8094 3.39282 20.976 3.70692ZM18 23.3332C19.5913 23.3332 21.1174 22.7186 22.2426 21.6246C23.3679 20.5307 24 19.0469 24 17.4998C24 15.9527 23.3679 14.469 22.2426 13.375C21.1174 12.2811 19.5913 11.6665 18 11.6665C16.4087 11.6665 14.8826 12.2811 13.7574 13.375C12.6321 14.469 12 15.9527 12 17.4998C12 19.0469 12.6321 20.5307 13.7574 21.6246C14.8826 22.7186 16.4087 23.3332 18 23.3332Z" fill="white"/>
</svg>
