<svg width="41" height="41" viewBox="0 0 41 41" fill="none" xmlns="http://www.w3.org/2000/svg">
<path d="M10.25 29.0417C10.25 25.625 17.0833 23.7458 20.5 23.7458C23.9167 23.7458 30.75 25.625 30.75 29.0417V30.75H10.25M25.625 15.375C25.625 16.7342 25.085 18.0378 24.1239 18.9989C23.1628 19.96 21.8592 20.5 20.5 20.5C19.1408 20.5 17.8372 19.96 16.8761 18.9989C15.915 18.0378 15.375 16.7342 15.375 15.375C15.375 14.0158 15.915 12.7122 16.8761 11.7511C17.8372 10.79 19.1408 10.25 20.5 10.25C21.8592 10.25 23.1628 10.79 24.1239 11.7511C25.085 12.7122 25.625 14.0158 25.625 15.375ZM5.125 8.54167V32.4583C5.125 33.3645 5.48497 34.2335 6.12572 34.8743C6.76647 35.515 7.63551 35.875 8.54167 35.875H32.4583C33.3645 35.875 34.2335 35.515 34.8743 34.8743C35.515 34.2335 35.875 33.3645 35.875 32.4583V8.54167C35.875 7.63551 35.515 6.76647 34.8743 6.12572C34.2335 5.48497 33.3645 5.125 32.4583 5.125H8.54167C7.63551 5.125 6.76647 5.48497 6.12572 6.12572C5.48497 6.76647 5.125 7.63551 5.125 8.54167Z" fill="#FFFFFD"/>
</svg>
