<svg width="33" height="33" viewBox="0 0 33 33" fill="none" xmlns="http://www.w3.org/2000/svg">
<path d="M17.875 12.375H15.125V9.625H17.875M17.875 23.375H15.125V15.125H17.875M16.5 2.75C14.6943 2.75 12.9063 3.10565 11.2381 3.79666C9.56988 4.48766 8.05409 5.50048 6.77728 6.77728C4.19866 9.35591 2.75 12.8533 2.75 16.5C2.75 20.1467 4.19866 23.6441 6.77728 26.2227C8.05409 27.4995 9.56988 28.5123 11.2381 29.2033C12.9063 29.8943 14.6943 30.25 16.5 30.25C20.1467 30.25 23.6441 28.8013 26.2227 26.2227C28.8013 23.6441 30.25 20.1467 30.25 16.5C30.25 14.6943 29.8943 12.9063 29.2033 11.2381C28.5123 9.56988 27.4995 8.05409 26.2227 6.77728C24.9459 5.50048 23.4301 4.48766 21.7619 3.79666C20.0937 3.10565 18.3057 2.75 16.5 2.75Z" fill="#FFFFFD"/>
</svg>
