<svg width="36" height="35" viewBox="0 0 36 35" fill="none" xmlns="http://www.w3.org/2000/svg">
<path fill-rule="evenodd" clip-rule="evenodd" d="M20.976 3.70704C21.1065 3.9535 21.1395 4.26996 21.204 4.90288C21.327 6.09871 21.3885 6.69663 21.6465 7.02621C21.8072 7.23084 22.0209 7.39046 22.2656 7.48882C22.5104 7.58718 22.7776 7.62078 23.04 7.58621C23.46 7.53225 23.94 7.15163 24.897 6.39038C25.4025 5.98642 25.656 5.78517 25.9275 5.70058C26.2733 5.59316 26.6474 5.61129 26.9805 5.75163C27.243 5.86246 27.4755 6.08704 27.936 6.53621L29.277 7.83996C29.739 8.28913 29.97 8.51371 30.084 8.76892C30.2283 9.09275 30.247 9.45648 30.1365 9.79267C30.0495 10.0566 29.8425 10.3031 29.4285 10.7945C28.644 11.7264 28.2525 12.1916 28.1955 12.6014C28.1604 12.8565 28.1953 13.116 28.2967 13.3537C28.3982 13.5914 28.5625 13.7988 28.773 13.9548C29.1105 14.2056 29.727 14.2654 30.9585 14.385C31.608 14.4477 31.9335 14.4797 32.1885 14.6066C32.5102 14.7688 32.7606 15.0387 32.8935 15.3664C33 15.6245 33 15.9425 33 16.5783V18.4216C33 19.0575 33 19.3754 32.895 19.632C32.7617 19.9608 32.5101 20.2313 32.187 20.3933C31.9335 20.5202 31.608 20.5522 30.957 20.615C29.727 20.7345 29.112 20.7943 28.773 21.0452C28.5625 21.2014 28.3983 21.4091 28.2972 21.6471C28.196 21.885 28.1614 22.1448 28.197 22.4C28.254 22.8083 28.6455 23.275 29.4285 24.2054C29.8425 24.6968 30.0495 24.9418 30.1365 25.2072C30.247 25.5434 30.2283 25.9072 30.084 26.231C29.97 26.4862 29.739 26.7108 29.277 27.16L27.936 28.4622C27.474 28.9129 27.243 29.1375 26.9805 29.2468C26.6474 29.3872 26.2733 29.4053 25.9275 29.2979C25.656 29.2133 25.4025 29.012 24.897 28.6095C23.9385 27.8483 23.46 27.4677 23.04 27.4137C22.7776 27.3791 22.5104 27.4127 22.2656 27.5111C22.0209 27.6095 21.8072 27.7691 21.6465 27.9737C21.3885 28.3018 21.327 28.8997 21.204 30.097C21.1395 30.73 21.1065 31.0464 20.976 31.2929C20.8098 31.6067 20.5321 31.8513 20.1945 31.9812C19.929 32.0833 19.602 32.0833 18.948 32.0833H17.052C16.398 32.0833 16.071 32.0833 15.807 31.9812C15.4688 31.8516 15.1906 31.607 15.024 31.2929C14.8935 31.0464 14.8605 30.73 14.796 30.097C14.673 28.9012 14.6115 28.3033 14.3535 27.9737C14.1929 27.7693 13.9795 27.6098 13.7351 27.5115C13.4906 27.4131 13.2237 27.3794 12.9615 27.4137C12.54 27.4677 12.0615 27.8483 11.103 28.6095C10.5975 29.0135 10.344 29.2147 10.0725 29.2993C9.72671 29.4068 9.35258 29.3886 9.0195 29.2483C8.757 29.1375 8.5245 28.9129 8.064 28.4637L6.723 27.16C6.261 26.7108 6.03 26.4862 5.916 26.231C5.77166 25.9072 5.75301 25.5434 5.8635 25.2072C5.9505 24.9433 6.1575 24.6968 6.5715 24.2054C7.356 23.2735 7.7475 22.8083 7.803 22.3985C7.83828 22.1436 7.80358 21.8841 7.70242 21.6464C7.60126 21.4088 7.43724 21.2013 7.227 21.0452C6.8895 20.7943 6.273 20.7345 5.0415 20.615C4.392 20.5522 4.0665 20.5202 3.8115 20.3933C3.48982 20.2311 3.23939 19.9612 3.1065 19.6335C3 19.3754 3 19.0575 3 18.4216V16.5783C3 15.9425 3 15.6245 3.105 15.3679C3.23833 15.0391 3.48992 14.7686 3.813 14.6066C4.0665 14.4797 4.392 14.4477 5.043 14.385C6.273 14.2654 6.8895 14.2056 7.227 13.9548C7.43751 13.7988 7.60183 13.5914 7.70325 13.3537C7.80468 13.116 7.83961 12.8565 7.8045 12.6014C7.7475 12.1916 7.3545 11.7264 6.5715 10.7931C6.1575 10.3016 5.9505 10.0566 5.8635 9.79121C5.75301 9.45503 5.77166 9.09129 5.916 8.76746C6.03 8.51371 6.261 8.28767 6.723 7.8385L8.064 6.53621C8.526 6.08704 8.757 5.861 9.0195 5.75163C9.35258 5.61129 9.72671 5.59316 10.0725 5.70058C10.344 5.78517 10.5975 5.98642 11.103 6.38892C12.0615 7.15017 12.54 7.53079 12.96 7.58621C13.2228 7.62088 13.4904 7.58719 13.7355 7.48856C13.9805 7.38993 14.1943 7.22989 14.355 7.02475C14.61 6.69663 14.673 6.09871 14.796 4.90142C14.8605 4.26996 14.8935 3.9535 15.024 3.70558C15.1905 3.39229 15.4681 3.14827 15.8055 3.01871C16.071 2.91663 16.398 2.91663 17.052 2.91663H18.948C19.602 2.91663 19.929 2.91663 20.193 3.01871C20.5312 3.14834 20.8094 3.39294 20.976 3.70704ZM18 23.3333C19.5913 23.3333 21.1174 22.7187 22.2426 21.6247C23.3679 20.5308 24 19.0471 24 17.5C24 15.9529 23.3679 14.4691 22.2426 13.3752C21.1174 12.2812 19.5913 11.6666 18 11.6666C16.4087 11.6666 14.8826 12.2812 13.7574 13.3752C12.6321 14.4691 12 15.9529 12 17.5C12 19.0471 12.6321 20.5308 13.7574 21.6247C14.8826 22.7187 16.4087 23.3333 18 23.3333Z" fill="#FFFFFD"/>
</svg>
