<svg width="23" height="33" viewBox="0 0 23 33" fill="none" xmlns="http://www.w3.org/2000/svg">
<path d="M20.0719 1.67038C20.3391 1.47279 20.8658 1.47294 21.1562 1.6634L4.86885 13.7032C4.51054 13.9649 4.19844 14.3004 3.97148 14.7024C3.74225 15.1084 3.60955 15.5661 3.59799 16.0444C3.58644 16.5226 3.69689 16.9862 3.90625 17.4028C4.11352 17.8152 4.40899 18.1654 4.7542 18.444L20.569 31.3591C20.4465 31.4291 20.2613 31.4847 20.0392 31.4781C19.7862 31.4706 19.5883 31.3855 19.4774 31.2975L2.14904 17.1419L2.14907 17.1419L2.14017 17.1347C1.90935 16.949 1.7507 16.7467 1.65293 16.552C1.55621 16.3595 1.51695 16.1713 1.52121 15.995C1.52546 15.8187 1.57376 15.6327 1.67966 15.445C1.78673 15.2553 1.95496 15.0609 2.19448 14.8865L2.1945 14.8866L2.2036 14.8799L20.0718 1.6705L20.0719 1.67038Z" fill="#2C2B2B" stroke="#373737" stroke-width="3"/>
</svg>
